<?xml version="1.0" encoding="utf-8"?>
<!-- Generator: Adobe Illustrator 26.0.1, SVG Export Plug-In . SVG Version: 6.00 Build 0)  -->
<svg version="1.1" id="Layer_1" xmlns="http://www.w3.org/2000/svg" xmlns:xlink="http://www.w3.org/1999/xlink" x="0px" y="0px"
	 viewBox="0 0 48 48" style="enable-background:new 0 0 48 48;" xml:space="preserve">
<style type="text/css">
	.st0{fill:#9B1818;}
	.st1{fill:#AA2D2D;}
	.st2{fill:none;stroke:#000000;stroke-width:4;stroke-miterlimit:10;}
	.st3{fill:#FFFFFF;}
</style>
<circle class="st0" cx="24" cy="24" r="21"/>
<path class="st1" d="M38.8,38.8c8.2-8.2,8.2-21.5,0-29.7s-21.5-8.2-29.7,0L38.8,38.8z"/>
<circle class="st2" cx="24" cy="24" r="21"/>
<g>
	<path class="st3" d="M24,38.3c-1.1,0-2.1-0.4-2.8-1.1c-0.7-0.7-1.1-1.6-1.1-2.6c0-1,0.4-1.9,1.1-2.6c0.7-0.7,1.7-1,2.8-1
		s2.1,0.3,2.8,1c0.7,0.7,1.1,1.5,1.1,2.6c0,1-0.4,1.9-1.1,2.6C26.1,38,25.2,38.3,24,38.3z M21.5,28.1L20.3,9.6h7.5l-1.3,18.5H21.5z"
		/>
</g>
</svg>
