<?xml version="1.0" encoding="utf-8"?>
<!-- Generator: Adobe Illustrator 26.0.1, SVG Export Plug-In . SVG Version: 6.00 Build 0)  -->
<svg version="1.1" id="Layer_1" xmlns="http://www.w3.org/2000/svg" xmlns:xlink="http://www.w3.org/1999/xlink" x="0px"
	y="0px" viewBox="0 0 48 48" style="enable-background:new 0 0 48 48;" xml:space="preserve">
	<style type="text/css">
		.st0 {
			fill: #C4C8F5;
		}

		.st1 {
			fill: #A7ADF0;
		}

		.st2 {
			fill: #FFB655;
		}

		.st3 {
			fill: #FF9811;
		}

		.st4 {
			fill: #1F66CC;
		}
	</style>
	<polygon class="st0" points="8.43,26.82 4.78,32.42 15.67,43.31 21.27,39.65 " />
	<polygon class="st0" points="11.24,10.52 1.68,20.07 9.32,22.5 21.82,10 " />
	<polygon class="st1" points="28.01,46.4 37.57,36.85 38.08,26.27 25.58,38.77 " />
	<polygon class="st2" points="3.34,33.75 6.11,36.53 2.78,39.86 1.3,38.39 0,37.09 " />
	<rect x="8.92" y="43.07" transform="matrix(0.7071 -0.7071 0.7071 0.7071 -28.538 21.1642)" class="st3" width="4.72"
		height="3.93" />
	<rect x="1.82" y="40.67" transform="matrix(0.7071 -0.7071 0.7071 0.7071 -28.5956 16.2373)" class="st2" width="6.96"
		height="3.93" />
	<path class="st4" d="M46.83,2.4l-0.31-0.83l-0.83-0.31c-2.06-0.78-4.22-1.17-6.43-1.17c-4.85,0-9.41,1.89-12.84,5.32L6.72,25.1
	l8.13,8.13l8.13,8.13l19.7-19.7C47.72,16.63,49.35,9.07,46.83,2.4z M39.63,15.39c-1.92,1.92-5.02,1.92-6.94,0
	c-1.92-1.92-1.92-5.02,0-6.94c1.92-1.92,5.02-1.92,6.94,0C41.55,10.37,41.55,13.48,39.63,15.39z" />
</svg>