<?xml version="1.0" encoding="iso-8859-1"?>
<!-- Generator: Adobe Illustrator 19.0.0, SVG Export Plug-In . SVG Version: 6.00 Build 0)  -->
<svg version="1.1" id="Layer_1" xmlns="http://www.w3.org/2000/svg" xmlns:xlink="http://www.w3.org/1999/xlink" x="0px" y="0px"
	 viewBox="0 0 511.995 511.995" style="enable-background:new 0 0 511.995 511.995;" xml:space="preserve">
<path style="fill:#999999;" d="M417.088,228.351h-7.578c-7.785-32.516-36.848-55.448-70.284-55.464
	c-8.057,0.136-16.05,1.535-23.676,4.148c-22.565-63.697-92.496-97.037-156.194-74.472c-48.638,17.233-81.234,63.122-81.498,114.717
	c0,4.236,0.232,8.409,0.639,12.541C27.311,238.374-7.259,286.812,1.302,338c7.601,45.497,47.104,78.748,93.232,78.485H417.04
	c51.955,0.488,94.463-41.229,94.95-93.184s-41.229-94.463-93.184-94.95C418.239,228.343,417.656,228.343,417.088,228.351
	L417.088,228.351z"/>
<g>
</g>
<g>
</g>
<g>
</g>
<g>
</g>
<g>
</g>
<g>
</g>
<g>
</g>
<g>
</g>
<g>
</g>
<g>
</g>
<g>
</g>
<g>
</g>
<g>
</g>
<g>
</g>
<g>
</g>
</svg>
