<?xml version="1.0" encoding="utf-8"?>
<!-- Generator: Adobe Illustrator 26.0.1, SVG Export Plug-In . SVG Version: 6.00 Build 0)  -->
<svg version="1.1" id="Layer_1" xmlns="http://www.w3.org/2000/svg" xmlns:xlink="http://www.w3.org/1999/xlink" x="0px" y="0px"
	 viewBox="0 0 48 48" style="enable-background:new 0 0 48 48;" xml:space="preserve">
<style type="text/css">
	.st0{fill:#545454;}
	.st1{fill:#00FFFF;}
</style>
<g>
	<path class="st0" d="M1,47.75c-0.41,0-0.75-0.34-0.75-0.75V37c0-1.52,1.23-2.75,2.75-2.75h42c1.52,0,2.75,1.23,2.75,2.75v10
		c0,0.41-0.34,0.75-0.75,0.75H1z M23.75,42.25h20.5v-2.5h-20.5V42.25z"/>
	<path d="M45,34.5c1.38,0,2.5,1.12,2.5,2.5v10c0,0.28-0.22,0.5-0.5,0.5H1c-0.28,0-0.5-0.22-0.5-0.5V37c0-1.38,1.12-2.5,2.5-2.5H45
		 M23.5,42.5H24h20h0.5V42v-2v-0.5H44H24h-0.5V40v2V42.5 M45,34H3c-1.66,0-3,1.34-3,3v10c0,0.55,0.45,1,1,1h46c0.55,0,1-0.45,1-1V37
		C48,35.34,46.66,34,45,34L45,34z M24,42v-2h20v2H24L24,42z"/>
</g>
<g>
	<path class="st0" d="M1,30.75c-0.41,0-0.75-0.34-0.75-0.75V20c0-1.52,1.23-2.75,2.75-2.75h42c1.52,0,2.75,1.23,2.75,2.75v10
		c0,0.41-0.34,0.75-0.75,0.75H1z M23.75,25.25h20.5v-2.5h-20.5V25.25z"/>
	<path d="M45,17.5c1.38,0,2.5,1.12,2.5,2.5v10c0,0.28-0.22,0.5-0.5,0.5H1c-0.28,0-0.5-0.22-0.5-0.5V20c0-1.38,1.12-2.5,2.5-2.5H45
		 M23.5,25.5H24h20h0.5V25v-2v-0.5H44H24h-0.5V23v2V25.5 M45,17H3c-1.66,0-3,1.34-3,3v10c0,0.55,0.45,1,1,1h46c0.55,0,1-0.45,1-1V20
		C48,18.34,46.66,17,45,17L45,17z M24,25v-2h20v2H24L24,25z"/>
</g>
<g>
	<path class="st0" d="M1,13.75c-0.41,0-0.75-0.34-0.75-0.75V3c0-1.52,1.23-2.75,2.75-2.75h42c1.52,0,2.75,1.23,2.75,2.75v10
		c0,0.41-0.34,0.75-0.75,0.75H1z M23.75,8.25h20.5v-2.5h-20.5V8.25z"/>
	<path d="M45,0.5c1.38,0,2.5,1.12,2.5,2.5v10c0,0.28-0.22,0.5-0.5,0.5H1c-0.28,0-0.5-0.22-0.5-0.5V3c0-1.38,1.12-2.5,2.5-2.5H45
		 M23.5,8.5H24h20h0.5V8V6V5.5H44H24h-0.5V6v2V8.5 M45,0H3C1.34,0,0,1.34,0,3v10c0,0.55,0.45,1,1,1h46c0.55,0,1-0.45,1-1V3
		C48,1.34,46.66,0,45,0L45,0z M24,8V6h20v2H24L24,8z"/>
</g>
<rect x="3" y="4" class="st1" width="6" height="6"/>
<rect x="14" y="4" class="st1" width="6" height="6"/>
<rect x="3" y="21" class="st1" width="6" height="6"/>
<rect x="14" y="21" class="st1" width="6" height="6"/>
<rect x="3" y="38" class="st1" width="6" height="6"/>
<rect x="14" y="38" class="st1" width="6" height="6"/>
</svg>
