<?xml version="1.0" encoding="utf-8"?>
<!-- Generator: Adobe Illustrator 26.0.1, SVG Export Plug-In . SVG Version: 6.00 Build 0)  -->
<svg version="1.1" id="Layer_1" xmlns="http://www.w3.org/2000/svg" xmlns:xlink="http://www.w3.org/1999/xlink" x="0px" y="0px"
	 viewBox="0 0 48 48" style="enable-background:new 0 0 48 48;" xml:space="preserve">
<style type="text/css">
	.st0{fill:#D6D6D6;}
	.st1{clip-path:url(#SVGID_00000082367033291964613210000000690178361674672305_);fill:#A5A5A5;}
	.st2{fill:#686868;}
</style>
<path class="st0" d="M27,0H10.7C8.11,0,6,2.11,6,4.7V43.3c0,2.6,2.11,4.7,4.7,4.7H37.3c2.6,0,4.7-2.11,4.7-4.7V15L27,0z"/>
<g>
	<defs>
		<path id="SVGID_1_" d="M27,0H10.7C8.11,0,6,2.11,6,4.7V43.3c0,2.6,2.11,4.7,4.7,4.7H37.3c2.6,0,4.7-2.11,4.7-4.7V15L27,0z"/>
	</defs>
	<clipPath id="SVGID_00000047054872850263839830000004357803166400085421_">
		<use xlink:href="#SVGID_1_"  style="overflow:visible;"/>
	</clipPath>
	<path style="clip-path:url(#SVGID_00000047054872850263839830000004357803166400085421_);fill:#A5A5A5;" d="M43,16H30.5
		c-1.38,0-2.5-1.12-2.5-2.5V1L43,16z"/>
</g>
<path class="st2" d="M42,15H29.5c-1.38,0-2.5-1.12-2.5-2.5V0L42,15z"/>
</svg>
