<?xml version="1.0" encoding="utf-8"?>
<!-- Generator: Adobe Illustrator 26.0.1, SVG Export Plug-In . SVG Version: 6.00 Build 0)  -->
<svg version="1.1" id="Layer_1" xmlns="http://www.w3.org/2000/svg" xmlns:xlink="http://www.w3.org/1999/xlink" x="0px" y="0px"
	 viewBox="0 0 48 48" style="enable-background:new 0 0 48 48;" xml:space="preserve">
<style type="text/css">
	.st0{fill:#056B5C;}
	.st1{fill:#0D9B79;}
	.st2{fill:#FFFFFF;}
</style>
<circle class="st0" cx="24" cy="24" r="24"/>
<path class="st1" d="M40.97,40.97c9.37-9.37,9.37-24.57,0-33.94s-24.57-9.37-33.94,0L40.97,40.97z"/>
<path class="st2" d="M26.17,11.8c-2.37,0-4.57,0.7-6.45,1.87L22.98,16c0.99-0.4,2.06-0.62,3.19-0.62c4.75,0,8.61,3.86,8.61,8.61
	s-3.86,8.61-8.61,8.61c-1.13,0-2.2-0.22-3.19-0.62l-3.26,2.33c1.87,1.18,4.08,1.87,6.45,1.87c6.73,0,12.2-5.47,12.2-12.2
	C38.37,17.27,32.9,11.8,26.17,11.8z"/>
<polygon class="st2" points="20.89,17.28 11.59,10.57 11.59,15.8 13.64,17.28 22.95,24 13.64,30.72 11.59,32.2 11.59,37.43 
	20.89,30.72 30.2,24 "/>
</svg>
