<?xml version="1.0" encoding="utf-8"?>
<!-- Generator: Adobe Illustrator 26.0.1, SVG Export Plug-In . SVG Version: 6.00 Build 0)  -->
<svg version="1.1" id="Layer_1" xmlns="http://www.w3.org/2000/svg" xmlns:xlink="http://www.w3.org/1999/xlink" x="0px" y="0px"
	 viewBox="0 0 48 48" style="enable-background:new 0 0 48 48;" xml:space="preserve">
<style type="text/css">
	.st0{fill:#BABABA;}
	.st1{fill:#056B5C;}
	.st2{fill:none;stroke:#FFFFFF;stroke-width:2;stroke-linecap:round;stroke-linejoin:round;stroke-miterlimit:10;}
	.st3{fill:none;stroke:#969696;stroke-width:2;stroke-linecap:round;stroke-linejoin:round;stroke-miterlimit:10;}
</style>
<path class="st0" d="M46,13H2c-1.1,0-2-0.9-2-2V2c0-1.1,0.9-2,2-2h44c1.1,0,2,0.9,2,2v9C48,12.1,47.1,13,46,13z"/>
<path class="st0" d="M46,30.5H2c-1.1,0-2-0.9-2-2v-9c0-1.1,0.9-2,2-2h44c1.1,0,2,0.9,2,2v9C48,29.6,47.1,30.5,46,30.5z"/>
<path class="st0" d="M46,48H2c-1.1,0-2-0.9-2-2v-9c0-1.1,0.9-2,2-2h44c1.1,0,2,0.9,2,2v9C48,47.1,47.1,48,46,48z"/>
<path class="st1" d="M2,13h11V0H2C0.9,0,0,0.9,0,2v9C0,12.1,0.9,13,2,13z"/>
<path class="st1" d="M2,48h11V35H2c-1.1,0-2,0.9-2,2v9C0,47.1,0.9,48,2,48z"/>
<path class="st1" d="M2,30.5h11v-13H2c-1.1,0-2,0.9-2,2v9C0,29.6,0.9,30.5,2,30.5z"/>
<polyline class="st2" points="3.7,23.93 6.84,26.6 10,21.29 "/>
<polyline class="st2" points="3.7,6.43 6.84,9.1 10,3.79 "/>
<polyline class="st2" points="3.7,41.43 6.84,44.1 10,38.79 "/>
<line class="st3" x1="18" y1="4" x2="43" y2="4"/>
<line class="st3" x1="18" y1="8" x2="43" y2="8"/>
<line class="st3" x1="18" y1="22" x2="43" y2="22"/>
<line class="st3" x1="18" y1="26" x2="43" y2="26"/>
<line class="st3" x1="18" y1="40" x2="43" y2="40"/>
<line class="st3" x1="18" y1="44" x2="43" y2="44"/>
</svg>
