<svg id="SvgjsSvg1001" width="288" height="288" xmlns="http://www.w3.org/2000/svg" version="1.1" xmlns:xlink="http://www.w3.org/1999/xlink" xmlns:svgjs="http://svgjs.com/svgjs">
    <defs id="SvgjsDefs1002"></defs>
    <g id="SvgjsG1008">
        <svg xmlns="http://www.w3.org/2000/svg" enable-background="new 0 0 458.18 458.18" viewBox="0 0 458.18 458.18" width="288" height="288">
            <path d="M36.09 5.948c-18.803 0-34.052 15.248-34.052 34.051 0 18.803 15.249 34.052 34.052 34.052 18.803 0 34.052-15.25 34.052-34.052C70.142 21.196 54.893 5.948 36.09 5.948zM147.537 80h268.604c22.092 0 40-17.908 40-40s-17.908-40-40-40H147.537c-22.092 0-40 17.908-40 40S125.445 80 147.537 80zM36.09 132.008c-18.803 0-34.052 15.248-34.052 34.051s15.249 34.052 34.052 34.052c18.803 0 34.052-15.249 34.052-34.052S54.893 132.008 36.09 132.008zM416.142 126.06H147.537c-22.092 0-40 17.908-40 40s17.908 40 40 40h268.604c22.092 0 40-17.908 40-40S438.233 126.06 416.142 126.06zM36.09 258.068c-18.803 0-34.052 15.248-34.052 34.051 0 18.803 15.249 34.052 34.052 34.052 18.803 0 34.052-15.249 34.052-34.052C70.142 273.316 54.893 258.068 36.09 258.068zM416.142 252.119H147.537c-22.092 0-40 17.908-40 40s17.908 40 40 40h268.604c22.092 0 40-17.908 40-40S438.233 252.119 416.142 252.119zM36.09 384.128c-18.803 0-34.052 15.248-34.052 34.051s15.249 34.053 34.052 34.053c18.803 0 34.052-15.25 34.052-34.053S54.893 384.128 36.09 384.128zM416.142 378.18H147.537c-22.092 0-40 17.908-40 40s17.908 40 40 40h268.604c22.092 0 40-17.908 40-40S438.233 378.18 416.142 378.18z" fill="#e0e7e8" class="color000 svgShape"></path>
        </svg>
    </g>
</svg>