<svg id="SvgjsSvg1001" width="288" height="288" xmlns="http://www.w3.org/2000/svg" version="1.1" xmlns:xlink="http://www.w3.org/1999/xlink" xmlns:svgjs="http://svgjs.com/svgjs"><defs id="SvgjsDefs1002"></defs><g id="SvgjsG1008"><svg xmlns="http://www.w3.org/2000/svg" xmlns:svgjs="http://svgjs.com/svgjs" xmlns:xlink="http://www.w3.org/1999/xlink" width="288" height="288"><svg xmlns="http://www.w3.org/2000/svg" width="288" height="288" enable-background="new 0 0 32 32" viewBox="0 0 32 32"><path fill="#e8e5e5" d="M25.883 6.086l-2.82 2.832C24.953 10.809 26 13.324 26 16c0 5.516-4.484 10-10 10v-2l-4 4 4 4v-2c7.719 0 14-6.281 14-14C30 12.254 28.539 8.734 25.883 6.086zM20 4l-4-4v2C8.281 2 2 8.281 2 16c0 3.746 1.461 7.266 4.117 9.914l2.82-2.832C7.047 21.191 6 18.676 6 16c0-5.516 4.484-10 10-10v2L20 4z" class="color030104 svgShape coloredf0f5"></path></svg></svg></g></svg>